<svg width="23" height="26" viewBox="0 0 23 26" fill="none" xmlns="http://www.w3.org/2000/svg">
<path d="M16 7L5.58749 17.5875C5.24277 17.9679 5.05756 18.4664 5.0702 18.9796C5.08283 19.4929 5.29235 19.9816 5.65538 20.3446C6.0184 20.7076 6.50712 20.9172 7.02036 20.9298C7.5336 20.9424 8.03204 20.7572 8.41249 20.4125L20.825 7.825C21.5144 7.0641 21.8849 6.06721 21.8596 5.04074C21.8343 4.01426 21.4153 3.03681 20.6892 2.31076C19.9632 1.58472 18.9857 1.16568 17.9593 1.1404C16.9328 1.11513 15.9359 1.48556 15.175 2.175L2.76249 14.7625C1.63864 15.8864 1.00726 17.4106 1.00726 19C1.00726 20.5894 1.63864 22.1136 2.76249 23.2375C3.88635 24.3614 5.41062 24.9927 6.99999 24.9927C8.58936 24.9927 10.1136 24.3614 11.2375 23.2375L21.5 13" stroke="#78787C" stroke-width="2" stroke-linecap="round" stroke-linejoin="round"/>
</svg>
